# Blender v2.93.6 OBJ File: ''
# www.blender.org
mtllib Dismond.mtl
o Diamonds_Mesh.053
v -1.280000 0.783000 0.270000
v -1.300000 0.783000 0.245000
v -1.320000 0.783000 0.270000
v -1.300000 0.783000 0.295000
v -1.280000 0.793000 0.270000
v -1.300000 0.793000 0.245000
v -1.320000 0.793000 0.270000
v -1.300000 0.793000 0.295000
v -0.980000 0.783000 0.270000
v -1.000000 0.783000 0.245000
v -1.020000 0.783000 0.270000
v -1.000000 0.783000 0.295000
v -0.980000 0.793000 0.270000
v -1.000000 0.793000 0.245000
v -1.020000 0.793000 0.270000
v -1.000000 0.793000 0.295000
v -1.580000 0.783000 0.270000
v -1.600000 0.783000 0.245000
v -1.620000 0.783000 0.270000
v -1.600000 0.783000 0.295000
v -1.580000 0.793000 0.270000
v -1.600000 0.793000 0.245000
v -1.620000 0.793000 0.270000
v -1.600000 0.793000 0.295000
v -2.280000 0.783000 0.270000
v -2.300000 0.783000 0.245000
v -2.320000 0.783000 0.270000
v -2.300000 0.783000 0.295000
v -2.280000 0.793000 0.270000
v -2.300000 0.793000 0.245000
v -2.320000 0.793000 0.270000
v -2.300000 0.793000 0.295000
v -2.580000 0.783000 0.270000
v -2.600000 0.783000 0.245000
v -2.620000 0.783000 0.270000
v -2.600000 0.783000 0.295000
v -2.580000 0.793000 0.270000
v -2.600000 0.793000 0.245000
v -2.620000 0.793000 0.270000
v -2.600000 0.793000 0.295000
v -2.880000 0.783000 0.270000
v -2.900000 0.783000 0.245000
v -2.920000 0.783000 0.270000
v -2.900000 0.783000 0.295000
v -2.880000 0.793000 0.270000
v -2.900000 0.793000 0.245000
v -2.920000 0.793000 0.270000
v -2.900000 0.793000 0.295000
v -2.880000 0.783000 -1.270000
v -2.900000 0.783000 -1.295000
v -2.920000 0.783000 -1.270000
v -2.900000 0.783000 -1.245000
v -2.880000 0.793000 -1.270000
v -2.900000 0.793000 -1.295000
v -2.920000 0.793000 -1.270000
v -2.900000 0.793000 -1.245000
v -2.580000 0.783000 -1.270000
v -2.600000 0.783000 -1.295000
v -2.620000 0.783000 -1.270000
v -2.600000 0.783000 -1.245000
v -2.580000 0.793000 -1.270000
v -2.600000 0.793000 -1.295000
v -2.620000 0.793000 -1.270000
v -2.600000 0.793000 -1.245000
v -2.280000 0.783000 -1.270000
v -2.300000 0.783000 -1.295000
v -2.320000 0.783000 -1.270000
v -2.300000 0.783000 -1.245000
v -2.280000 0.793000 -1.270000
v -2.300000 0.793000 -1.295000
v -2.320000 0.793000 -1.270000
v -2.300000 0.793000 -1.245000
v -1.580000 0.783000 -1.270000
v -1.600000 0.783000 -1.295000
v -1.620000 0.783000 -1.270000
v -1.600000 0.783000 -1.245000
v -1.580000 0.793000 -1.270000
v -1.600000 0.793000 -1.295000
v -1.620000 0.793000 -1.270000
v -1.600000 0.793000 -1.245000
v -1.280000 0.783000 -1.270000
v -1.300000 0.783000 -1.295000
v -1.320000 0.783000 -1.270000
v -1.300000 0.783000 -1.245000
v -1.280000 0.793000 -1.270000
v -1.300000 0.793000 -1.295000
v -1.320000 0.793000 -1.270000
v -1.300000 0.793000 -1.245000
v -0.980000 0.783000 -1.270000
v -1.000000 0.783000 -1.295000
v -1.020000 0.783000 -1.270000
v -1.000000 0.783000 -1.245000
v -0.980000 0.793000 -1.270000
v -1.000000 0.793000 -1.295000
v -1.020000 0.793000 -1.270000
v -1.000000 0.793000 -1.245000
v -0.530000 0.783000 -0.820000
v -0.555000 0.783000 -0.800000
v -0.530000 0.783000 -0.780000
v -0.505000 0.783000 -0.800000
v -0.530000 0.793000 -0.820000
v -0.555000 0.793000 -0.800000
v -0.530000 0.793000 -0.780000
v -0.505000 0.793000 -0.800000
v -0.530000 0.783000 -0.520000
v -0.555000 0.783000 -0.500000
v -0.530000 0.783000 -0.480000
v -0.505000 0.783000 -0.500000
v -0.530000 0.793000 -0.520000
v -0.555000 0.793000 -0.500000
v -0.530000 0.793000 -0.480000
v -0.505000 0.793000 -0.500000
v -0.530000 0.783000 -0.220000
v -0.555000 0.783000 -0.200000
v -0.530000 0.783000 -0.180000
v -0.505000 0.783000 -0.200000
v -0.530000 0.793000 -0.220000
v -0.555000 0.793000 -0.200000
v -0.530000 0.793000 -0.180000
v -0.505000 0.793000 -0.200000
v -3.370000 0.783000 -0.220000
v -3.395000 0.783000 -0.200000
v -3.370000 0.783000 -0.180000
v -3.345000 0.783000 -0.200000
v -3.370000 0.793000 -0.220000
v -3.395000 0.793000 -0.200000
v -3.370000 0.793000 -0.180000
v -3.345000 0.793000 -0.200000
v -3.370000 0.783000 -0.520000
v -3.395000 0.783000 -0.500000
v -3.370000 0.783000 -0.480000
v -3.345000 0.783000 -0.500000
v -3.370000 0.793000 -0.520000
v -3.395000 0.793000 -0.500000
v -3.370000 0.793000 -0.480000
v -3.345000 0.793000 -0.500000
v -3.370000 0.783000 -0.820000
v -3.395000 0.783000 -0.800000
v -3.370000 0.783000 -0.780000
v -3.345000 0.783000 -0.800000
v -3.370000 0.793000 -0.820000
v -3.395000 0.793000 -0.800000
v -3.370000 0.793000 -0.780000
v -3.345000 0.793000 -0.800000
vt 0.000000 0.000000
vt 0.250000 0.000000
vt 0.250000 1.000000
vt 0.000000 1.000000
vt 0.500000 0.000000
vt 0.500000 1.000000
vt 0.750000 0.000000
vt 0.750000 1.000000
vt 1.000000 0.000000
vt 1.000000 1.000000
vt 1.000000 0.500000
vt 0.000000 0.500000
vt 0.500000 1.000000
vt 0.500000 0.000000
vt 1.000000 0.500000
vt 0.500000 1.000000
vt 0.000000 0.500000
vt 0.500000 0.000000
vt 0.000000 0.000000
vt 0.250000 0.000000
vt 0.250000 1.000000
vt 0.000000 1.000000
vt 0.500000 0.000000
vt 0.500000 1.000000
vt 0.750000 0.000000
vt 0.750000 1.000000
vt 1.000000 0.000000
vt 1.000000 1.000000
vt 1.000000 0.500000
vt 0.000000 0.500000
vt 0.500000 1.000000
vt 0.500000 0.000000
vt 1.000000 0.500000
vt 0.500000 1.000000
vt 0.000000 0.500000
vt 0.500000 0.000000
vt 0.000000 0.000000
vt 0.250000 0.000000
vt 0.250000 1.000000
vt 0.000000 1.000000
vt 0.500000 0.000000
vt 0.500000 1.000000
vt 0.750000 0.000000
vt 0.750000 1.000000
vt 1.000000 0.000000
vt 1.000000 1.000000
vt 1.000000 0.500000
vt 0.000000 0.500000
vt 0.500000 1.000000
vt 0.500000 0.000000
vt 1.000000 0.500000
vt 0.500000 1.000000
vt 0.000000 0.500000
vt 0.500000 0.000000
vt 0.000000 0.000000
vt 0.250000 0.000000
vt 0.250000 1.000000
vt 0.000000 1.000000
vt 0.500000 0.000000
vt 0.500000 1.000000
vt 0.750000 0.000000
vt 0.750000 1.000000
vt 1.000000 0.000000
vt 1.000000 1.000000
vt 1.000000 0.500000
vt 0.000000 0.500000
vt 0.500000 1.000000
vt 0.500000 0.000000
vt 1.000000 0.500000
vt 0.500000 1.000000
vt 0.000000 0.500000
vt 0.500000 0.000000
vt 0.000000 0.000000
vt 0.250000 0.000000
vt 0.250000 1.000000
vt 0.000000 1.000000
vt 0.500000 0.000000
vt 0.500000 1.000000
vt 0.750000 0.000000
vt 0.750000 1.000000
vt 1.000000 0.000000
vt 1.000000 1.000000
vt 1.000000 0.500000
vt 0.000000 0.500000
vt 0.500000 1.000000
vt 0.500000 0.000000
vt 1.000000 0.500000
vt 0.500000 1.000000
vt 0.000000 0.500000
vt 0.500000 0.000000
vt 0.000000 0.000000
vt 0.250000 0.000000
vt 0.250000 1.000000
vt 0.000000 1.000000
vt 0.500000 0.000000
vt 0.500000 1.000000
vt 0.750000 0.000000
vt 0.750000 1.000000
vt 1.000000 0.000000
vt 1.000000 1.000000
vt 1.000000 0.500000
vt 0.000000 0.500000
vt 0.500000 1.000000
vt 0.500000 0.000000
vt 1.000000 0.500000
vt 0.500000 1.000000
vt 0.000000 0.500000
vt 0.500000 0.000000
vt 0.000000 0.000000
vt 0.250000 0.000000
vt 0.250000 1.000000
vt 0.000000 1.000000
vt 0.500000 0.000000
vt 0.500000 1.000000
vt 0.750000 0.000000
vt 0.750000 1.000000
vt 1.000000 0.000000
vt 1.000000 1.000000
vt 1.000000 0.500000
vt 0.000000 0.500000
vt 0.500000 1.000000
vt 0.500000 0.000000
vt 1.000000 0.500000
vt 0.500000 1.000000
vt 0.000000 0.500000
vt 0.500000 0.000000
vt 0.000000 0.000000
vt 0.250000 0.000000
vt 0.250000 1.000000
vt 0.000000 1.000000
vt 0.500000 0.000000
vt 0.500000 1.000000
vt 0.750000 0.000000
vt 0.750000 1.000000
vt 1.000000 0.000000
vt 1.000000 1.000000
vt 1.000000 0.500000
vt 0.000000 0.500000
vt 0.500000 1.000000
vt 0.500000 0.000000
vt 1.000000 0.500000
vt 0.500000 1.000000
vt 0.000000 0.500000
vt 0.500000 0.000000
vt 0.000000 0.000000
vt 0.250000 0.000000
vt 0.250000 1.000000
vt 0.000000 1.000000
vt 0.500000 0.000000
vt 0.500000 1.000000
vt 0.750000 0.000000
vt 0.750000 1.000000
vt 1.000000 0.000000
vt 1.000000 1.000000
vt 1.000000 0.500000
vt 0.000000 0.500000
vt 0.500000 1.000000
vt 0.500000 0.000000
vt 1.000000 0.500000
vt 0.500000 1.000000
vt 0.000000 0.500000
vt 0.500000 0.000000
vt 0.000000 0.000000
vt 0.250000 0.000000
vt 0.250000 1.000000
vt 0.000000 1.000000
vt 0.500000 0.000000
vt 0.500000 1.000000
vt 0.750000 0.000000
vt 0.750000 1.000000
vt 1.000000 0.000000
vt 1.000000 1.000000
vt 1.000000 0.500000
vt 0.000000 0.500000
vt 0.500000 1.000000
vt 0.500000 0.000000
vt 1.000000 0.500000
vt 0.500000 1.000000
vt 0.000000 0.500000
vt 0.500000 0.000000
vt 0.000000 0.000000
vt 0.250000 0.000000
vt 0.250000 1.000000
vt 0.000000 1.000000
vt 0.500000 0.000000
vt 0.500000 1.000000
vt 0.750000 0.000000
vt 0.750000 1.000000
vt 1.000000 0.000000
vt 1.000000 1.000000
vt 1.000000 0.500000
vt 0.000000 0.500000
vt 0.500000 1.000000
vt 0.500000 0.000000
vt 1.000000 0.500000
vt 0.500000 1.000000
vt 0.000000 0.500000
vt 0.500000 0.000000
vt 0.000000 0.000000
vt 0.250000 0.000000
vt 0.250000 1.000000
vt 0.000000 1.000000
vt 0.500000 0.000000
vt 0.500000 1.000000
vt 0.750000 0.000000
vt 0.750000 1.000000
vt 1.000000 0.000000
vt 1.000000 1.000000
vt 1.000000 0.500000
vt 0.000000 0.500000
vt 0.500000 1.000000
vt 0.500000 0.000000
vt 1.000000 0.500000
vt 0.500000 1.000000
vt 0.000000 0.500000
vt 0.500000 0.000000
vt 0.000000 0.000000
vt 0.250000 0.000000
vt 0.250000 1.000000
vt 0.000000 1.000000
vt 0.500000 0.000000
vt 0.500000 1.000000
vt 0.750000 0.000000
vt 0.750000 1.000000
vt 1.000000 0.000000
vt 1.000000 1.000000
vt 1.000000 0.500000
vt 0.000000 0.500000
vt 0.500000 1.000000
vt 0.500000 0.000000
vt 1.000000 0.500000
vt 0.500000 1.000000
vt 0.000000 0.500000
vt 0.500000 0.000000
vt 0.000000 0.000000
vt 0.250000 0.000000
vt 0.250000 1.000000
vt 0.000000 1.000000
vt 0.500000 0.000000
vt 0.500000 1.000000
vt 0.750000 0.000000
vt 0.750000 1.000000
vt 1.000000 0.000000
vt 1.000000 1.000000
vt 1.000000 0.500000
vt 0.000000 0.500000
vt 0.500000 1.000000
vt 0.500000 0.000000
vt 1.000000 0.500000
vt 0.500000 1.000000
vt 0.000000 0.500000
vt 0.500000 0.000000
vt 0.000000 0.000000
vt 0.250000 0.000000
vt 0.250000 1.000000
vt 0.000000 1.000000
vt 0.500000 0.000000
vt 0.500000 1.000000
vt 0.750000 0.000000
vt 0.750000 1.000000
vt 1.000000 0.000000
vt 1.000000 1.000000
vt 1.000000 0.500000
vt 0.000000 0.500000
vt 0.500000 1.000000
vt 0.500000 0.000000
vt 1.000000 0.500000
vt 0.500000 1.000000
vt 0.000000 0.500000
vt 0.500000 0.000000
vt 0.000000 0.000000
vt 0.250000 0.000000
vt 0.250000 1.000000
vt 0.000000 1.000000
vt 0.500000 0.000000
vt 0.500000 1.000000
vt 0.750000 0.000000
vt 0.750000 1.000000
vt 1.000000 0.000000
vt 1.000000 1.000000
vt 1.000000 0.500000
vt 0.000000 0.500000
vt 0.500000 1.000000
vt 0.500000 0.000000
vt 1.000000 0.500000
vt 0.500000 1.000000
vt 0.000000 0.500000
vt 0.500000 0.000000
vt 0.000000 0.000000
vt 0.250000 0.000000
vt 0.250000 1.000000
vt 0.000000 1.000000
vt 0.500000 0.000000
vt 0.500000 1.000000
vt 0.750000 0.000000
vt 0.750000 1.000000
vt 1.000000 0.000000
vt 1.000000 1.000000
vt 1.000000 0.500000
vt 0.000000 0.500000
vt 0.500000 1.000000
vt 0.500000 0.000000
vt 1.000000 0.500000
vt 0.500000 1.000000
vt 0.000000 0.500000
vt 0.500000 0.000000
vt 0.000000 0.000000
vt 0.250000 0.000000
vt 0.250000 1.000000
vt 0.000000 1.000000
vt 0.500000 0.000000
vt 0.500000 1.000000
vt 0.750000 0.000000
vt 0.750000 1.000000
vt 1.000000 0.000000
vt 1.000000 1.000000
vt 1.000000 0.500000
vt 0.000000 0.500000
vt 0.500000 1.000000
vt 0.500000 0.000000
vt 1.000000 0.500000
vt 0.500000 1.000000
vt 0.000000 0.500000
vt 0.500000 0.000000
vn 0.7809 0.0000 -0.6247
vn -0.7809 0.0000 -0.6247
vn -0.7809 0.0000 0.6247
vn 0.7809 0.0000 0.6247
vn 0.0000 -1.0000 0.0000
vn 0.0000 1.0000 0.0000
vn -0.6247 0.0000 -0.7809
vn -0.6247 0.0000 0.7809
vn 0.6247 0.0000 0.7809
vn 0.6247 0.0000 -0.7809
usemtl None
s 1
f 1/1/1 2/2/1 6/3/1
f 1/1/1 6/3/1 5/4/1
f 2/2/2 3/5/2 7/6/2
f 2/2/2 7/6/2 6/3/2
f 3/5/3 4/7/3 8/8/3
f 3/5/3 8/8/3 7/6/3
f 4/7/4 1/9/4 5/10/4
f 4/7/4 5/10/4 8/8/4
f 1/11/5 3/12/5 2/13/5
f 4/14/5 3/12/5 1/11/5
f 5/15/6 6/16/6 7/17/6
f 8/18/6 5/15/6 7/17/6
f 9/19/1 10/20/1 14/21/1
f 9/19/1 14/21/1 13/22/1
f 10/20/2 11/23/2 15/24/2
f 10/20/2 15/24/2 14/21/2
f 11/23/3 12/25/3 16/26/3
f 11/23/3 16/26/3 15/24/3
f 12/25/4 9/27/4 13/28/4
f 12/25/4 13/28/4 16/26/4
f 9/29/5 11/30/5 10/31/5
f 12/32/5 11/30/5 9/29/5
f 13/33/6 14/34/6 15/35/6
f 16/36/6 13/33/6 15/35/6
f 17/37/1 18/38/1 22/39/1
f 17/37/1 22/39/1 21/40/1
f 18/38/2 19/41/2 23/42/2
f 18/38/2 23/42/2 22/39/2
f 19/41/3 20/43/3 24/44/3
f 19/41/3 24/44/3 23/42/3
f 20/43/4 17/45/4 21/46/4
f 20/43/4 21/46/4 24/44/4
f 17/47/5 19/48/5 18/49/5
f 20/50/5 19/48/5 17/47/5
f 21/51/6 22/52/6 23/53/6
f 24/54/6 21/51/6 23/53/6
f 25/55/1 26/56/1 30/57/1
f 25/55/1 30/57/1 29/58/1
f 26/56/2 27/59/2 31/60/2
f 26/56/2 31/60/2 30/57/2
f 27/59/3 28/61/3 32/62/3
f 27/59/3 32/62/3 31/60/3
f 28/61/4 25/63/4 29/64/4
f 28/61/4 29/64/4 32/62/4
f 25/65/5 27/66/5 26/67/5
f 28/68/5 27/66/5 25/65/5
f 29/69/6 30/70/6 31/71/6
f 32/72/6 29/69/6 31/71/6
f 33/73/1 34/74/1 38/75/1
f 33/73/1 38/75/1 37/76/1
f 34/74/2 35/77/2 39/78/2
f 34/74/2 39/78/2 38/75/2
f 35/77/3 36/79/3 40/80/3
f 35/77/3 40/80/3 39/78/3
f 36/79/4 33/81/4 37/82/4
f 36/79/4 37/82/4 40/80/4
f 33/83/5 35/84/5 34/85/5
f 36/86/5 35/84/5 33/83/5
f 37/87/6 38/88/6 39/89/6
f 40/90/6 37/87/6 39/89/6
f 41/91/1 42/92/1 46/93/1
f 41/91/1 46/93/1 45/94/1
f 42/92/2 43/95/2 47/96/2
f 42/92/2 47/96/2 46/93/2
f 43/95/3 44/97/3 48/98/3
f 43/95/3 48/98/3 47/96/3
f 44/97/4 41/99/4 45/100/4
f 44/97/4 45/100/4 48/98/4
f 41/101/5 43/102/5 42/103/5
f 44/104/5 43/102/5 41/101/5
f 45/105/6 46/106/6 47/107/6
f 48/108/6 45/105/6 47/107/6
f 49/109/1 50/110/1 54/111/1
f 49/109/1 54/111/1 53/112/1
f 50/110/2 51/113/2 55/114/2
f 50/110/2 55/114/2 54/111/2
f 51/113/3 52/115/3 56/116/3
f 51/113/3 56/116/3 55/114/3
f 52/115/4 49/117/4 53/118/4
f 52/115/4 53/118/4 56/116/4
f 49/119/5 51/120/5 50/121/5
f 52/122/5 51/120/5 49/119/5
f 53/123/6 54/124/6 55/125/6
f 56/126/6 53/123/6 55/125/6
f 57/127/1 58/128/1 62/129/1
f 57/127/1 62/129/1 61/130/1
f 58/128/2 59/131/2 63/132/2
f 58/128/2 63/132/2 62/129/2
f 59/131/3 60/133/3 64/134/3
f 59/131/3 64/134/3 63/132/3
f 60/133/4 57/135/4 61/136/4
f 60/133/4 61/136/4 64/134/4
f 57/137/5 59/138/5 58/139/5
f 60/140/5 59/138/5 57/137/5
f 61/141/6 62/142/6 63/143/6
f 64/144/6 61/141/6 63/143/6
f 65/145/1 66/146/1 70/147/1
f 65/145/1 70/147/1 69/148/1
f 66/146/2 67/149/2 71/150/2
f 66/146/2 71/150/2 70/147/2
f 67/149/3 68/151/3 72/152/3
f 67/149/3 72/152/3 71/150/3
f 68/151/4 65/153/4 69/154/4
f 68/151/4 69/154/4 72/152/4
f 65/155/5 67/156/5 66/157/5
f 68/158/5 67/156/5 65/155/5
f 69/159/6 70/160/6 71/161/6
f 72/162/6 69/159/6 71/161/6
f 73/163/1 74/164/1 78/165/1
f 73/163/1 78/165/1 77/166/1
f 74/164/2 75/167/2 79/168/2
f 74/164/2 79/168/2 78/165/2
f 75/167/3 76/169/3 80/170/3
f 75/167/3 80/170/3 79/168/3
f 76/169/4 73/171/4 77/172/4
f 76/169/4 77/172/4 80/170/4
f 73/173/5 75/174/5 74/175/5
f 76/176/5 75/174/5 73/173/5
f 77/177/6 78/178/6 79/179/6
f 80/180/6 77/177/6 79/179/6
f 81/181/1 82/182/1 86/183/1
f 81/181/1 86/183/1 85/184/1
f 82/182/2 83/185/2 87/186/2
f 82/182/2 87/186/2 86/183/2
f 83/185/3 84/187/3 88/188/3
f 83/185/3 88/188/3 87/186/3
f 84/187/4 81/189/4 85/190/4
f 84/187/4 85/190/4 88/188/4
f 81/191/5 83/192/5 82/193/5
f 84/194/5 83/192/5 81/191/5
f 85/195/6 86/196/6 87/197/6
f 88/198/6 85/195/6 87/197/6
f 89/199/1 90/200/1 94/201/1
f 89/199/1 94/201/1 93/202/1
f 90/200/2 91/203/2 95/204/2
f 90/200/2 95/204/2 94/201/2
f 91/203/3 92/205/3 96/206/3
f 91/203/3 96/206/3 95/204/3
f 92/205/4 89/207/4 93/208/4
f 92/205/4 93/208/4 96/206/4
f 89/209/5 91/210/5 90/211/5
f 92/212/5 91/210/5 89/209/5
f 93/213/6 94/214/6 95/215/6
f 96/216/6 93/213/6 95/215/6
f 97/217/7 98/218/7 102/219/7
f 97/217/7 102/219/7 101/220/7
f 98/218/8 99/221/8 103/222/8
f 98/218/8 103/222/8 102/219/8
f 99/221/9 100/223/9 104/224/9
f 99/221/9 104/224/9 103/222/9
f 100/223/10 97/225/10 101/226/10
f 100/223/10 101/226/10 104/224/10
f 97/227/5 99/228/5 98/229/5
f 100/230/5 99/228/5 97/227/5
f 101/231/6 102/232/6 103/233/6
f 104/234/6 101/231/6 103/233/6
f 105/235/7 106/236/7 110/237/7
f 105/235/7 110/237/7 109/238/7
f 106/236/8 107/239/8 111/240/8
f 106/236/8 111/240/8 110/237/8
f 107/239/9 108/241/9 112/242/9
f 107/239/9 112/242/9 111/240/9
f 108/241/10 105/243/10 109/244/10
f 108/241/10 109/244/10 112/242/10
f 105/245/5 107/246/5 106/247/5
f 108/248/5 107/246/5 105/245/5
f 109/249/6 110/250/6 111/251/6
f 112/252/6 109/249/6 111/251/6
f 113/253/7 114/254/7 118/255/7
f 113/253/7 118/255/7 117/256/7
f 114/254/8 115/257/8 119/258/8
f 114/254/8 119/258/8 118/255/8
f 115/257/9 116/259/9 120/260/9
f 115/257/9 120/260/9 119/258/9
f 116/259/10 113/261/10 117/262/10
f 116/259/10 117/262/10 120/260/10
f 113/263/5 115/264/5 114/265/5
f 116/266/5 115/264/5 113/263/5
f 117/267/6 118/268/6 119/269/6
f 120/270/6 117/267/6 119/269/6
f 121/271/7 122/272/7 126/273/7
f 121/271/7 126/273/7 125/274/7
f 122/272/8 123/275/8 127/276/8
f 122/272/8 127/276/8 126/273/8
f 123/275/9 124/277/9 128/278/9
f 123/275/9 128/278/9 127/276/9
f 124/277/10 121/279/10 125/280/10
f 124/277/10 125/280/10 128/278/10
f 121/281/5 123/282/5 122/283/5
f 124/284/5 123/282/5 121/281/5
f 125/285/6 126/286/6 127/287/6
f 128/288/6 125/285/6 127/287/6
f 129/289/7 130/290/7 134/291/7
f 129/289/7 134/291/7 133/292/7
f 130/290/8 131/293/8 135/294/8
f 130/290/8 135/294/8 134/291/8
f 131/293/9 132/295/9 136/296/9
f 131/293/9 136/296/9 135/294/9
f 132/295/10 129/297/10 133/298/10
f 132/295/10 133/298/10 136/296/10
f 129/299/5 131/300/5 130/301/5
f 132/302/5 131/300/5 129/299/5
f 133/303/6 134/304/6 135/305/6
f 136/306/6 133/303/6 135/305/6
f 137/307/7 138/308/7 142/309/7
f 137/307/7 142/309/7 141/310/7
f 138/308/8 139/311/8 143/312/8
f 138/308/8 143/312/8 142/309/8
f 139/311/9 140/313/9 144/314/9
f 139/311/9 144/314/9 143/312/9
f 140/313/10 137/315/10 141/316/10
f 140/313/10 141/316/10 144/314/10
f 137/317/5 139/318/5 138/319/5
f 140/320/5 139/318/5 137/317/5
f 141/321/6 142/322/6 143/323/6
f 144/324/6 141/321/6 143/323/6
